<mxfile host="app.diagrams.net" modified="2022-09-04T18:14:59.368Z" agent="5.0 (Windows)" etag="VZzXDqWLR8zTL0slYd69" version="20.2.8" type="github">
  <diagram id="DA9injmPz5gYIz-tdfSx" name="hardweare_overall_diagram">
    <mxGraphModel dx="1520" dy="990" grid="1" gridSize="10" guides="1" tooltips="1" connect="1" arrows="1" fold="1" page="1" pageScale="1" pageWidth="850" pageHeight="1100" math="0" shadow="0">
      <root>
        <mxCell id="0" />
        <mxCell id="1" parent="0" />
        <mxCell id="OmCJdY4qoT6l-CiM3UKr-32" value="" style="whiteSpace=wrap;html=1;aspect=fixed;fontSize=16;" vertex="1" parent="1">
          <mxGeometry x="110" y="860" width="640" height="640" as="geometry" />
        </mxCell>
        <mxCell id="OmCJdY4qoT6l-CiM3UKr-13" value="" style="rounded=0;whiteSpace=wrap;html=1;fontSize=22;fillColor=#dae8fc;strokeColor=#6c8ebf;" vertex="1" parent="1">
          <mxGeometry x="260" y="1190" width="180" height="200" as="geometry" />
        </mxCell>
        <mxCell id="OmCJdY4qoT6l-CiM3UKr-3" value="" style="rounded=0;whiteSpace=wrap;html=1;fillColor=#f8cecc;strokeColor=#b85450;" vertex="1" parent="1">
          <mxGeometry x="120" y="150" width="640" height="590" as="geometry" />
        </mxCell>
        <mxCell id="H9R15JqGRCV7nAU2df1A-18" value="" style="group;fillColor=#d5e8d4;strokeColor=#82b366;" parent="1" vertex="1" connectable="0">
          <mxGeometry x="447" y="540" width="170" height="180" as="geometry" />
        </mxCell>
        <mxCell id="H9R15JqGRCV7nAU2df1A-19" value="" style="rounded=0;whiteSpace=wrap;html=1;fillColor=#d5e8d4;strokeColor=#82b366;" parent="H9R15JqGRCV7nAU2df1A-18" vertex="1">
          <mxGeometry width="170" height="180" as="geometry" />
        </mxCell>
        <mxCell id="H9R15JqGRCV7nAU2df1A-20" value="&lt;div&gt;WLAN AND &lt;br&gt;&lt;/div&gt;&lt;div&gt;BLUETOOTH&lt;/div&gt;&lt;div&gt;COMMUNICATION&lt;br&gt;&lt;/div&gt;" style="rounded=1;whiteSpace=wrap;html=1;" parent="H9R15JqGRCV7nAU2df1A-18" vertex="1">
          <mxGeometry x="14.166666666666666" y="110" width="141.66666666666666" height="60" as="geometry" />
        </mxCell>
        <mxCell id="H9R15JqGRCV7nAU2df1A-21" value="WAN COMMUNICATION" style="rounded=1;whiteSpace=wrap;html=1;" parent="H9R15JqGRCV7nAU2df1A-18" vertex="1">
          <mxGeometry x="14.166666666666666" y="40" width="141.66666666666666" height="60" as="geometry" />
        </mxCell>
        <mxCell id="H9R15JqGRCV7nAU2df1A-22" value="COMMUNICATION" style="text;html=1;strokeColor=none;fillColor=none;align=left;verticalAlign=middle;whiteSpace=wrap;rounded=0;" parent="H9R15JqGRCV7nAU2df1A-18" vertex="1">
          <mxGeometry x="9.916666666666666" width="85" height="30" as="geometry" />
        </mxCell>
        <mxCell id="H9R15JqGRCV7nAU2df1A-2" value="" style="rounded=0;whiteSpace=wrap;html=1;fillColor=#fad7ac;strokeColor=#b46504;" parent="1" vertex="1">
          <mxGeometry x="350" y="260" width="150" height="190" as="geometry" />
        </mxCell>
        <mxCell id="H9R15JqGRCV7nAU2df1A-3" value="CPU_1" style="rounded=0;whiteSpace=wrap;html=1;" parent="1" vertex="1">
          <mxGeometry x="375" y="370" width="100" height="60" as="geometry" />
        </mxCell>
        <mxCell id="H9R15JqGRCV7nAU2df1A-50" style="edgeStyle=orthogonalEdgeStyle;rounded=0;orthogonalLoop=1;jettySize=auto;html=1;exitX=0.5;exitY=1;exitDx=0;exitDy=0;entryX=0.5;entryY=0;entryDx=0;entryDy=0;startArrow=classic;startFill=1;endArrow=classic;endFill=1;strokeWidth=1;" parent="1" source="H9R15JqGRCV7nAU2df1A-4" target="H9R15JqGRCV7nAU2df1A-3" edge="1">
          <mxGeometry relative="1" as="geometry" />
        </mxCell>
        <mxCell id="H9R15JqGRCV7nAU2df1A-4" value="CPU_0" style="rounded=0;whiteSpace=wrap;html=1;" parent="1" vertex="1">
          <mxGeometry x="375" y="290" width="100" height="60" as="geometry" />
        </mxCell>
        <mxCell id="H9R15JqGRCV7nAU2df1A-5" style="edgeStyle=orthogonalEdgeStyle;rounded=0;orthogonalLoop=1;jettySize=auto;html=1;exitX=0.5;exitY=1;exitDx=0;exitDy=0;" parent="1" source="H9R15JqGRCV7nAU2df1A-2" target="H9R15JqGRCV7nAU2df1A-2" edge="1">
          <mxGeometry relative="1" as="geometry" />
        </mxCell>
        <mxCell id="H9R15JqGRCV7nAU2df1A-6" style="edgeStyle=orthogonalEdgeStyle;rounded=0;orthogonalLoop=1;jettySize=auto;html=1;exitX=0.5;exitY=1;exitDx=0;exitDy=0;" parent="1" source="H9R15JqGRCV7nAU2df1A-2" target="H9R15JqGRCV7nAU2df1A-2" edge="1">
          <mxGeometry relative="1" as="geometry" />
        </mxCell>
        <mxCell id="H9R15JqGRCV7nAU2df1A-9" value="&lt;div align=&quot;left&quot;&gt;CPU&lt;/div&gt;" style="text;html=1;strokeColor=none;fillColor=none;align=left;verticalAlign=middle;whiteSpace=wrap;rounded=0;" parent="1" vertex="1">
          <mxGeometry x="372" y="260" width="60" height="30" as="geometry" />
        </mxCell>
        <mxCell id="H9R15JqGRCV7nAU2df1A-24" style="edgeStyle=orthogonalEdgeStyle;rounded=0;orthogonalLoop=1;jettySize=auto;html=1;entryX=0.75;entryY=1;entryDx=0;entryDy=0;fillColor=#d5e8d4;strokeColor=#82b366;endArrow=block;endFill=1;strokeWidth=3;startArrow=classic;startFill=1;" parent="1" source="H9R15JqGRCV7nAU2df1A-19" target="H9R15JqGRCV7nAU2df1A-3" edge="1">
          <mxGeometry relative="1" as="geometry">
            <Array as="points">
              <mxPoint x="490" y="485" />
              <mxPoint x="450" y="485" />
            </Array>
          </mxGeometry>
        </mxCell>
        <mxCell id="H9R15JqGRCV7nAU2df1A-10" value="" style="rounded=0;whiteSpace=wrap;html=1;fillColor=#b0e3e6;strokeColor=#0e8088;" parent="1" vertex="1">
          <mxGeometry x="540" y="260" width="140" height="250" as="geometry" />
        </mxCell>
        <mxCell id="H9R15JqGRCV7nAU2df1A-35" style="edgeStyle=orthogonalEdgeStyle;rounded=0;orthogonalLoop=1;jettySize=auto;html=1;exitX=0;exitY=0.5;exitDx=0;exitDy=0;entryX=1;entryY=0.75;entryDx=0;entryDy=0;endArrow=block;endFill=1;strokeWidth=3;fillColor=#f8cecc;strokeColor=#b85450;" parent="1" source="H9R15JqGRCV7nAU2df1A-11" target="H9R15JqGRCV7nAU2df1A-3" edge="1">
          <mxGeometry relative="1" as="geometry" />
        </mxCell>
        <mxCell id="H9R15JqGRCV7nAU2df1A-11" value="&lt;div&gt;LOW DATA RATE&lt;/div&gt;&lt;div&gt;SENSORS&lt;br&gt;&lt;/div&gt;" style="rounded=1;whiteSpace=wrap;html=1;" parent="1" vertex="1">
          <mxGeometry x="560" y="440" width="100" height="60" as="geometry" />
        </mxCell>
        <mxCell id="H9R15JqGRCV7nAU2df1A-12" value="&lt;div&gt;HIGH DATA RATE &lt;br&gt;&lt;/div&gt;&lt;div&gt;SENSORS&lt;br&gt;&lt;/div&gt;" style="rounded=1;whiteSpace=wrap;html=1;" parent="1" vertex="1">
          <mxGeometry x="560" y="300" width="100" height="60" as="geometry" />
        </mxCell>
        <mxCell id="H9R15JqGRCV7nAU2df1A-13" value="&lt;div align=&quot;left&quot;&gt;MONITORING&lt;/div&gt;" style="text;html=1;strokeColor=none;fillColor=none;align=left;verticalAlign=middle;whiteSpace=wrap;rounded=0;" parent="1" vertex="1">
          <mxGeometry x="557" y="260" width="60" height="30" as="geometry" />
        </mxCell>
        <mxCell id="H9R15JqGRCV7nAU2df1A-14" style="edgeStyle=orthogonalEdgeStyle;rounded=0;orthogonalLoop=1;jettySize=auto;html=1;exitX=0;exitY=0.5;exitDx=0;exitDy=0;entryX=1;entryY=0.5;entryDx=0;entryDy=0;fillColor=#e1d5e7;strokeColor=#9673a6;endArrow=block;endFill=1;strokeWidth=3;" parent="1" source="H9R15JqGRCV7nAU2df1A-12" target="H9R15JqGRCV7nAU2df1A-4" edge="1">
          <mxGeometry relative="1" as="geometry" />
        </mxCell>
        <mxCell id="H9R15JqGRCV7nAU2df1A-32" style="edgeStyle=orthogonalEdgeStyle;rounded=0;orthogonalLoop=1;jettySize=auto;html=1;entryX=0;entryY=0.5;entryDx=0;entryDy=0;endArrow=block;endFill=1;strokeWidth=3;fillColor=#dae8fc;strokeColor=#6c8ebf;startArrow=classic;startFill=1;" parent="1" source="H9R15JqGRCV7nAU2df1A-28" target="H9R15JqGRCV7nAU2df1A-4" edge="1">
          <mxGeometry relative="1" as="geometry">
            <Array as="points">
              <mxPoint x="330" y="355" />
              <mxPoint x="330" y="320" />
            </Array>
          </mxGeometry>
        </mxCell>
        <mxCell id="H9R15JqGRCV7nAU2df1A-28" value="" style="rounded=0;whiteSpace=wrap;html=1;fillColor=#b0e3e6;strokeColor=#0e8088;" parent="1" vertex="1">
          <mxGeometry x="170" y="260" width="140" height="190" as="geometry" />
        </mxCell>
        <mxCell id="H9R15JqGRCV7nAU2df1A-29" value="FILE SYSTEM MANAGEMENT" style="rounded=1;whiteSpace=wrap;html=1;" parent="1" vertex="1">
          <mxGeometry x="190" y="370" width="100" height="60" as="geometry" />
        </mxCell>
        <mxCell id="H9R15JqGRCV7nAU2df1A-30" value="DATA STORAGE" style="rounded=1;whiteSpace=wrap;html=1;" parent="1" vertex="1">
          <mxGeometry x="190" y="300" width="100" height="60" as="geometry" />
        </mxCell>
        <mxCell id="H9R15JqGRCV7nAU2df1A-31" value="&lt;div align=&quot;left&quot;&gt;DATA SOTRAGE&lt;br&gt;&lt;/div&gt;" style="text;html=1;strokeColor=none;fillColor=none;align=left;verticalAlign=middle;whiteSpace=wrap;rounded=0;" parent="1" vertex="1">
          <mxGeometry x="187" y="260" width="103" height="30" as="geometry" />
        </mxCell>
        <mxCell id="H9R15JqGRCV7nAU2df1A-36" style="edgeStyle=orthogonalEdgeStyle;rounded=0;orthogonalLoop=1;jettySize=auto;html=1;exitX=0;exitY=0.5;exitDx=0;exitDy=0;entryX=1;entryY=0.25;entryDx=0;entryDy=0;endArrow=block;endFill=1;strokeWidth=3;fillColor=#f8cecc;strokeColor=#b85450;" parent="1" source="H9R15JqGRCV7nAU2df1A-33" target="H9R15JqGRCV7nAU2df1A-3" edge="1">
          <mxGeometry relative="1" as="geometry" />
        </mxCell>
        <mxCell id="H9R15JqGRCV7nAU2df1A-33" value="&lt;div&gt;EXTERNAL&lt;/div&gt;&lt;div&gt;(OPTIONAL)&lt;/div&gt;&lt;div&gt;SENSORS&lt;br&gt;&lt;/div&gt;" style="rounded=1;whiteSpace=wrap;html=1;" parent="1" vertex="1">
          <mxGeometry x="560" y="370" width="100" height="60" as="geometry" />
        </mxCell>
        <mxCell id="H9R15JqGRCV7nAU2df1A-41" value="" style="group;fillColor=#d5e8d4;strokeColor=#82b366;" parent="1" vertex="1" connectable="0">
          <mxGeometry x="170" y="490" width="170" height="180" as="geometry" />
        </mxCell>
        <mxCell id="H9R15JqGRCV7nAU2df1A-42" value="" style="rounded=0;whiteSpace=wrap;html=1;fillColor=#fff2cc;strokeColor=#d6b656;" parent="H9R15JqGRCV7nAU2df1A-41" vertex="1">
          <mxGeometry width="170" height="180" as="geometry" />
        </mxCell>
        <mxCell id="H9R15JqGRCV7nAU2df1A-43" value="3 DIGITAL OUTPUT" style="rounded=1;whiteSpace=wrap;html=1;" parent="H9R15JqGRCV7nAU2df1A-41" vertex="1">
          <mxGeometry x="14.166666666666666" y="110" width="141.66666666666666" height="60" as="geometry" />
        </mxCell>
        <mxCell id="H9R15JqGRCV7nAU2df1A-44" value="3 DIGITAL INPUT" style="rounded=1;whiteSpace=wrap;html=1;" parent="H9R15JqGRCV7nAU2df1A-41" vertex="1">
          <mxGeometry x="14.166666666666666" y="40" width="141.66666666666666" height="60" as="geometry" />
        </mxCell>
        <mxCell id="H9R15JqGRCV7nAU2df1A-45" value="DIGITAL INPUT/OUTPUT" style="text;html=1;strokeColor=none;fillColor=none;align=left;verticalAlign=middle;whiteSpace=wrap;rounded=0;" parent="H9R15JqGRCV7nAU2df1A-41" vertex="1">
          <mxGeometry x="9.92" width="150.08" height="30" as="geometry" />
        </mxCell>
        <mxCell id="H9R15JqGRCV7nAU2df1A-47" style="edgeStyle=orthogonalEdgeStyle;rounded=0;orthogonalLoop=1;jettySize=auto;html=1;exitX=1;exitY=0.5;exitDx=0;exitDy=0;entryX=0.25;entryY=1;entryDx=0;entryDy=0;startArrow=none;startFill=0;endArrow=block;endFill=1;strokeWidth=3;" parent="1" source="H9R15JqGRCV7nAU2df1A-44" target="H9R15JqGRCV7nAU2df1A-3" edge="1">
          <mxGeometry relative="1" as="geometry" />
        </mxCell>
        <mxCell id="H9R15JqGRCV7nAU2df1A-49" style="edgeStyle=orthogonalEdgeStyle;rounded=0;orthogonalLoop=1;jettySize=auto;html=1;startArrow=classic;startFill=1;endArrow=none;endFill=0;strokeWidth=3;" parent="1" source="H9R15JqGRCV7nAU2df1A-43" target="H9R15JqGRCV7nAU2df1A-3" edge="1">
          <mxGeometry relative="1" as="geometry" />
        </mxCell>
        <mxCell id="OmCJdY4qoT6l-CiM3UKr-1" value="EXTERNAL FLASH" style="rounded=0;whiteSpace=wrap;html=1;" vertex="1" parent="1">
          <mxGeometry x="350" y="190" width="150" height="70" as="geometry" />
        </mxCell>
        <mxCell id="OmCJdY4qoT6l-CiM3UKr-2" value="" style="endArrow=classic;startArrow=classic;html=1;rounded=0;" edge="1" parent="1" source="H9R15JqGRCV7nAU2df1A-4" target="OmCJdY4qoT6l-CiM3UKr-1">
          <mxGeometry width="50" height="50" relative="1" as="geometry">
            <mxPoint x="400" y="380" as="sourcePoint" />
            <mxPoint x="450" y="330" as="targetPoint" />
          </mxGeometry>
        </mxCell>
        <mxCell id="OmCJdY4qoT6l-CiM3UKr-4" value="&lt;font style=&quot;font-size: 22px;&quot;&gt;&lt;b&gt;DEVICE&lt;/b&gt;&lt;/font&gt;" style="text;html=1;strokeColor=none;fillColor=none;align=center;verticalAlign=middle;whiteSpace=wrap;rounded=0;" vertex="1" parent="1">
          <mxGeometry x="160" y="170" width="60" height="30" as="geometry" />
        </mxCell>
        <mxCell id="OmCJdY4qoT6l-CiM3UKr-5" value="2 نفر" style="text;html=1;strokeColor=none;fillColor=none;align=center;verticalAlign=middle;whiteSpace=wrap;rounded=0;fontSize=22;" vertex="1" parent="1">
          <mxGeometry x="690" y="160" width="60" height="30" as="geometry" />
        </mxCell>
        <mxCell id="OmCJdY4qoT6l-CiM3UKr-7" value="" style="rounded=0;whiteSpace=wrap;html=1;fontSize=22;fillColor=#dae8fc;strokeColor=#6c8ebf;" vertex="1" parent="1">
          <mxGeometry x="500" y="1190" width="180" height="200" as="geometry" />
        </mxCell>
        <mxCell id="OmCJdY4qoT6l-CiM3UKr-8" value="&lt;font style=&quot;font-size: 16px;&quot;&gt;AUTHANTICATION&lt;/font&gt;" style="text;html=1;strokeColor=none;fillColor=none;align=center;verticalAlign=middle;whiteSpace=wrap;rounded=0;fontSize=22;" vertex="1" parent="1">
          <mxGeometry x="550" y="1190" width="60" height="30" as="geometry" />
        </mxCell>
        <mxCell id="OmCJdY4qoT6l-CiM3UKr-18" style="edgeStyle=orthogonalEdgeStyle;rounded=0;orthogonalLoop=1;jettySize=auto;html=1;entryX=1;entryY=0.5;entryDx=0;entryDy=0;fontSize=16;" edge="1" parent="1" source="OmCJdY4qoT6l-CiM3UKr-10" target="OmCJdY4qoT6l-CiM3UKr-16">
          <mxGeometry relative="1" as="geometry" />
        </mxCell>
        <mxCell id="OmCJdY4qoT6l-CiM3UKr-10" value="DEVICE AUTH" style="rounded=1;whiteSpace=wrap;html=1;fontSize=16;" vertex="1" parent="1">
          <mxGeometry x="530" y="1240" width="120" height="60" as="geometry" />
        </mxCell>
        <mxCell id="OmCJdY4qoT6l-CiM3UKr-30" style="edgeStyle=orthogonalEdgeStyle;rounded=0;orthogonalLoop=1;jettySize=auto;html=1;exitX=0.5;exitY=1;exitDx=0;exitDy=0;entryX=0.75;entryY=0;entryDx=0;entryDy=0;fontSize=16;" edge="1" parent="1" source="OmCJdY4qoT6l-CiM3UKr-11" target="OmCJdY4qoT6l-CiM3UKr-29">
          <mxGeometry relative="1" as="geometry" />
        </mxCell>
        <mxCell id="OmCJdY4qoT6l-CiM3UKr-11" value="SERVICE AUTH" style="rounded=1;whiteSpace=wrap;html=1;fontSize=16;" vertex="1" parent="1">
          <mxGeometry x="530" y="1310" width="120" height="60" as="geometry" />
        </mxCell>
        <mxCell id="OmCJdY4qoT6l-CiM3UKr-14" value="&lt;font style=&quot;font-size: 16px;&quot;&gt;KEY EXCHANGE&lt;br&gt;&lt;/font&gt;" style="text;html=1;strokeColor=none;fillColor=none;align=center;verticalAlign=middle;whiteSpace=wrap;rounded=0;fontSize=22;fontStyle=0" vertex="1" parent="1">
          <mxGeometry x="260" y="1190" width="150" height="30" as="geometry" />
        </mxCell>
        <mxCell id="OmCJdY4qoT6l-CiM3UKr-15" value="TOKEN GEN" style="rounded=1;whiteSpace=wrap;html=1;fontSize=16;" vertex="1" parent="1">
          <mxGeometry x="290" y="1240" width="120" height="60" as="geometry" />
        </mxCell>
        <mxCell id="OmCJdY4qoT6l-CiM3UKr-16" value="PSK CHCK" style="rounded=1;whiteSpace=wrap;html=1;fontSize=16;" vertex="1" parent="1">
          <mxGeometry x="290" y="1310" width="120" height="60" as="geometry" />
        </mxCell>
        <mxCell id="OmCJdY4qoT6l-CiM3UKr-23" style="edgeStyle=orthogonalEdgeStyle;rounded=0;orthogonalLoop=1;jettySize=auto;html=1;fontSize=16;" edge="1" parent="1" source="OmCJdY4qoT6l-CiM3UKr-19" target="OmCJdY4qoT6l-CiM3UKr-8">
          <mxGeometry relative="1" as="geometry" />
        </mxCell>
        <mxCell id="OmCJdY4qoT6l-CiM3UKr-19" value="" style="rounded=0;whiteSpace=wrap;html=1;fontSize=22;fillColor=#dae8fc;strokeColor=#6c8ebf;" vertex="1" parent="1">
          <mxGeometry x="365" y="950" width="180" height="200" as="geometry" />
        </mxCell>
        <mxCell id="OmCJdY4qoT6l-CiM3UKr-20" value="DECRIYPTION&lt;font style=&quot;font-size: 16px;&quot;&gt;&lt;br&gt;&lt;/font&gt;" style="text;html=1;strokeColor=none;fillColor=none;align=center;verticalAlign=middle;whiteSpace=wrap;rounded=0;fontSize=22;fontStyle=0" vertex="1" parent="1">
          <mxGeometry x="365" y="950" width="150" height="30" as="geometry" />
        </mxCell>
        <mxCell id="OmCJdY4qoT6l-CiM3UKr-25" style="edgeStyle=orthogonalEdgeStyle;rounded=0;orthogonalLoop=1;jettySize=auto;html=1;entryX=0;entryY=0.5;entryDx=0;entryDy=0;fontSize=16;" edge="1" parent="1" source="OmCJdY4qoT6l-CiM3UKr-21" target="OmCJdY4qoT6l-CiM3UKr-15">
          <mxGeometry relative="1" as="geometry">
            <Array as="points">
              <mxPoint x="210" y="1030" />
              <mxPoint x="210" y="1270" />
            </Array>
          </mxGeometry>
        </mxCell>
        <mxCell id="OmCJdY4qoT6l-CiM3UKr-21" value="MESSAGE DECRYPTION" style="rounded=1;whiteSpace=wrap;html=1;fontSize=16;" vertex="1" parent="1">
          <mxGeometry x="395" y="1000" width="120" height="60" as="geometry" />
        </mxCell>
        <mxCell id="OmCJdY4qoT6l-CiM3UKr-26" style="edgeStyle=orthogonalEdgeStyle;rounded=0;orthogonalLoop=1;jettySize=auto;html=1;fontSize=16;" edge="1" parent="1" source="OmCJdY4qoT6l-CiM3UKr-22">
          <mxGeometry relative="1" as="geometry">
            <mxPoint x="290" y="1270" as="targetPoint" />
            <Array as="points">
              <mxPoint x="210" y="1100" />
              <mxPoint x="210" y="1270" />
            </Array>
          </mxGeometry>
        </mxCell>
        <mxCell id="OmCJdY4qoT6l-CiM3UKr-22" value="CONFIG DECRYPTION" style="rounded=1;whiteSpace=wrap;html=1;fontSize=16;" vertex="1" parent="1">
          <mxGeometry x="395" y="1070" width="120" height="60" as="geometry" />
        </mxCell>
        <mxCell id="OmCJdY4qoT6l-CiM3UKr-29" value="SSL/TLS" style="rounded=0;whiteSpace=wrap;html=1;fontSize=16;" vertex="1" parent="1">
          <mxGeometry x="200" y="1410" width="480" height="60" as="geometry" />
        </mxCell>
        <mxCell id="OmCJdY4qoT6l-CiM3UKr-33" value="" style="shape=flexArrow;endArrow=classic;startArrow=classic;html=1;rounded=0;fontSize=16;entryX=0.5;entryY=1;entryDx=0;entryDy=0;exitX=0.5;exitY=0;exitDx=0;exitDy=0;" edge="1" parent="1" source="OmCJdY4qoT6l-CiM3UKr-32" target="OmCJdY4qoT6l-CiM3UKr-3">
          <mxGeometry width="100" height="100" relative="1" as="geometry">
            <mxPoint x="400" y="840" as="sourcePoint" />
            <mxPoint x="500" y="740" as="targetPoint" />
          </mxGeometry>
        </mxCell>
        <mxCell id="OmCJdY4qoT6l-CiM3UKr-34" value="&lt;div&gt;END TO END ENCRYPTION&lt;/div&gt;" style="edgeLabel;html=1;align=center;verticalAlign=middle;resizable=0;points=[];fontSize=16;" vertex="1" connectable="0" parent="OmCJdY4qoT6l-CiM3UKr-33">
          <mxGeometry x="-0.1857" y="-2" relative="1" as="geometry">
            <mxPoint x="4" y="-11" as="offset" />
          </mxGeometry>
        </mxCell>
        <mxCell id="OmCJdY4qoT6l-CiM3UKr-35" value="یک نفر" style="text;html=1;strokeColor=none;fillColor=none;align=center;verticalAlign=middle;whiteSpace=wrap;rounded=0;fontSize=25;" vertex="1" parent="1">
          <mxGeometry x="620" y="870" width="120" height="30" as="geometry" />
        </mxCell>
        <mxCell id="OmCJdY4qoT6l-CiM3UKr-37" value="" style="rounded=0;whiteSpace=wrap;html=1;fontSize=16;" vertex="1" parent="1">
          <mxGeometry x="880" y="830" width="640" height="670" as="geometry" />
        </mxCell>
        <mxCell id="OmCJdY4qoT6l-CiM3UKr-51" style="edgeStyle=orthogonalEdgeStyle;rounded=0;orthogonalLoop=1;jettySize=auto;html=1;fontSize=16;" edge="1" parent="1" source="OmCJdY4qoT6l-CiM3UKr-43" target="OmCJdY4qoT6l-CiM3UKr-48">
          <mxGeometry relative="1" as="geometry" />
        </mxCell>
        <mxCell id="OmCJdY4qoT6l-CiM3UKr-43" value="WEB FREAMWORK" style="rounded=1;whiteSpace=wrap;html=1;fontSize=16;" vertex="1" parent="1">
          <mxGeometry x="940" y="910" width="540" height="410" as="geometry" />
        </mxCell>
        <mxCell id="OmCJdY4qoT6l-CiM3UKr-44" value="DATA CHECK" style="rounded=1;whiteSpace=wrap;html=1;fontSize=16;" vertex="1" parent="1">
          <mxGeometry x="1000" y="1190" width="120" height="60" as="geometry" />
        </mxCell>
        <mxCell id="OmCJdY4qoT6l-CiM3UKr-45" value="DATA REDUCTION" style="rounded=1;whiteSpace=wrap;html=1;fontSize=16;" vertex="1" parent="1">
          <mxGeometry x="1000" y="990" width="120" height="60" as="geometry" />
        </mxCell>
        <mxCell id="OmCJdY4qoT6l-CiM3UKr-46" value="API MANAGEMENT" style="rounded=1;whiteSpace=wrap;html=1;fontSize=16;" vertex="1" parent="1">
          <mxGeometry x="1290" y="980" width="120" height="60" as="geometry" />
        </mxCell>
        <mxCell id="OmCJdY4qoT6l-CiM3UKr-47" value="DATABASE MANAGEMENT" style="rounded=1;whiteSpace=wrap;html=1;fontSize=16;" vertex="1" parent="1">
          <mxGeometry x="1290" y="1190" width="120" height="60" as="geometry" />
        </mxCell>
        <mxCell id="OmCJdY4qoT6l-CiM3UKr-48" value="" style="sketch=0;aspect=fixed;html=1;points=[];align=center;image;fontSize=12;image=img/lib/mscae/Managed_Databases.svg;" vertex="1" parent="1">
          <mxGeometry x="1141.5" y="1340" width="137" height="145.74" as="geometry" />
        </mxCell>
        <mxCell id="OmCJdY4qoT6l-CiM3UKr-50" style="edgeStyle=orthogonalEdgeStyle;rounded=0;orthogonalLoop=1;jettySize=auto;html=1;entryX=1;entryY=0.25;entryDx=0;entryDy=0;fontSize=16;" edge="1" parent="1" source="OmCJdY4qoT6l-CiM3UKr-49" target="OmCJdY4qoT6l-CiM3UKr-19">
          <mxGeometry relative="1" as="geometry" />
        </mxCell>
        <mxCell id="OmCJdY4qoT6l-CiM3UKr-49" value="REDIS" style="sketch=0;aspect=fixed;html=1;points=[];align=center;image;fontSize=12;image=img/lib/mscae/Cache_Redis_Product.svg;" vertex="1" parent="1">
          <mxGeometry x="620" y="978" width="50" height="42" as="geometry" />
        </mxCell>
        <mxCell id="OmCJdY4qoT6l-CiM3UKr-52" value="&lt;b&gt;&lt;font style=&quot;font-size: 25px;&quot;&gt;LOG SERVER&lt;br&gt;&lt;/font&gt;&lt;/b&gt;" style="text;html=1;strokeColor=none;fillColor=none;align=center;verticalAlign=middle;whiteSpace=wrap;rounded=0;fontSize=16;" vertex="1" parent="1">
          <mxGeometry x="811.5" y="840" width="330" height="30" as="geometry" />
        </mxCell>
        <mxCell id="OmCJdY4qoT6l-CiM3UKr-53" value="" style="shape=flexArrow;endArrow=classic;startArrow=none;html=1;rounded=0;fontSize=25;entryX=0;entryY=0.5;entryDx=0;entryDy=0;exitX=1;exitY=0.5;exitDx=0;exitDy=0;" edge="1" parent="1" source="OmCJdY4qoT6l-CiM3UKr-54" target="OmCJdY4qoT6l-CiM3UKr-37">
          <mxGeometry width="100" height="100" relative="1" as="geometry">
            <mxPoint x="770" y="1270" as="sourcePoint" />
            <mxPoint x="870" y="1170" as="targetPoint" />
          </mxGeometry>
        </mxCell>
        <mxCell id="OmCJdY4qoT6l-CiM3UKr-54" value="TLS" style="fillColor=#28A8E0;verticalLabelPosition=bottom;sketch=0;html=1;strokeColor=#ffffff;verticalAlign=top;align=center;points=[[0.145,0.145,0],[0.5,0,0],[0.855,0.145,0],[1,0.5,0],[0.855,0.855,0],[0.5,1,0],[0.145,0.855,0],[0,0.5,0]];pointerEvents=1;shape=mxgraph.cisco_safe.compositeIcon;bgIcon=ellipse;resIcon=mxgraph.cisco_safe.capability.ssl_tls_offload;fontSize=25;" vertex="1" parent="1">
          <mxGeometry x="790" y="1150" width="43" height="43" as="geometry" />
        </mxCell>
        <mxCell id="OmCJdY4qoT6l-CiM3UKr-55" value="" style="shape=flexArrow;endArrow=none;startArrow=classic;html=1;rounded=0;fontSize=25;entryX=0;entryY=0.5;entryDx=0;entryDy=0;exitX=1;exitY=0.5;exitDx=0;exitDy=0;" edge="1" parent="1" source="OmCJdY4qoT6l-CiM3UKr-32" target="OmCJdY4qoT6l-CiM3UKr-54">
          <mxGeometry width="100" height="100" relative="1" as="geometry">
            <mxPoint x="750" y="1180" as="sourcePoint" />
            <mxPoint x="890" y="1150" as="targetPoint" />
          </mxGeometry>
        </mxCell>
        <mxCell id="OmCJdY4qoT6l-CiM3UKr-56" value="دو نفر" style="text;html=1;strokeColor=none;fillColor=none;align=center;verticalAlign=middle;whiteSpace=wrap;rounded=0;fontSize=25;" vertex="1" parent="1">
          <mxGeometry x="1410" y="850" width="60" height="30" as="geometry" />
        </mxCell>
        <mxCell id="OmCJdY4qoT6l-CiM3UKr-62" style="edgeStyle=orthogonalEdgeStyle;rounded=0;orthogonalLoop=1;jettySize=auto;html=1;entryX=0.881;entryY=0.024;entryDx=0;entryDy=0;entryPerimeter=0;fontSize=25;" edge="1" parent="1" source="OmCJdY4qoT6l-CiM3UKr-57" target="OmCJdY4qoT6l-CiM3UKr-58">
          <mxGeometry relative="1" as="geometry" />
        </mxCell>
        <mxCell id="OmCJdY4qoT6l-CiM3UKr-57" value="" style="sketch=0;aspect=fixed;pointerEvents=1;shadow=0;dashed=0;html=1;strokeColor=none;labelPosition=center;verticalLabelPosition=bottom;verticalAlign=top;align=center;fillColor=#00188D;shape=mxgraph.azure.user;fontSize=25;" vertex="1" parent="1">
          <mxGeometry x="1388.3" y="275" width="103.4" height="110" as="geometry" />
        </mxCell>
        <mxCell id="OmCJdY4qoT6l-CiM3UKr-58" value="APPLICATION SERVER" style="rounded=0;whiteSpace=wrap;html=1;fontSize=25;" vertex="1" parent="1">
          <mxGeometry x="885" y="480" width="630" height="60" as="geometry" />
        </mxCell>
        <mxCell id="OmCJdY4qoT6l-CiM3UKr-60" value="" style="shape=flexArrow;endArrow=classic;startArrow=classic;html=1;rounded=0;fontSize=25;entryX=0.5;entryY=1;entryDx=0;entryDy=0;exitX=0.5;exitY=0;exitDx=0;exitDy=0;" edge="1" parent="1" source="OmCJdY4qoT6l-CiM3UKr-37" target="OmCJdY4qoT6l-CiM3UKr-58">
          <mxGeometry width="100" height="100" relative="1" as="geometry">
            <mxPoint x="1060" y="840" as="sourcePoint" />
            <mxPoint x="1160" y="740" as="targetPoint" />
          </mxGeometry>
        </mxCell>
        <mxCell id="OmCJdY4qoT6l-CiM3UKr-61" value="" style="sketch=0;html=1;dashed=0;whitespace=wrap;fillColor=#2875E2;strokeColor=#ffffff;points=[[0.005,0.63,0],[0.1,0.2,0],[0.9,0.2,0],[0.5,0,0],[0.995,0.63,0],[0.72,0.99,0],[0.5,1,0],[0.28,0.99,0]];shape=mxgraph.kubernetes.icon;prIcon=api;fontSize=25;" vertex="1" parent="1">
          <mxGeometry x="950" y="590" width="491" height="188" as="geometry" />
        </mxCell>
      </root>
    </mxGraphModel>
  </diagram>
</mxfile>
